<?xml version="1.0" standalone="no"?>
<!DOCTYPE svg PUBLIC "-//W3C//DTD SVG 20010904//EN"
 "http://www.w3.org/TR/2001/REC-SVG-20010904/DTD/svg10.dtd">
<svg version="1.0" xmlns="http://www.w3.org/2000/svg"
 width="2256.000000pt" height="2256.000000pt" viewBox="0 0 2256.000000 2256.000000"
 preserveAspectRatio="xMidYMid meet">
<metadata>
Created by potrace 1.14, written by Peter Selinger 2001-2017
</metadata>
<g transform="translate(0.000000,2256.000000) scale(0.100000,-0.100000)"
fill="#000000" stroke="none">
<path d="M708 13684 c-3 -2 -50 -6 -104 -8 -55 -3 -120 -9 -146 -15 -164 -38
-301 -141 -371 -278 -20 -40 -34 -73 -30 -73 3 0 1 -6 -4 -12 -42 -53 -49
-391 -11 -533 5 -22 12 -51 15 -65 2 -14 9 -43 15 -65 7 -22 12 -42 13 -45 27
-96 65 -205 113 -320 27 -67 197 -405 204 -408 4 -2 8 -8 8 -13 0 -25 324
-529 354 -551 9 -6 2 -18 -49 -88 -11 -15 -42 -61 -70 -101 -27 -41 -52 -76
-55 -79 -3 -3 -10 -14 -17 -25 -6 -11 -38 -63 -71 -115 -117 -187 -272 -476
-272 -507 0 -7 -4 -13 -10 -13 -5 0 -10 -5 -10 -11 0 -6 -15 -47 -34 -92 -32
-77 -47 -116 -51 -127 -1 -3 -16 -50 -34 -105 -18 -55 -35 -111 -37 -125 -3
-14 -7 -32 -10 -40 -3 -8 -8 -25 -10 -37 -2 -13 -6 -35 -9 -50 -14 -75 -19
-128 -19 -238 -1 -127 6 -193 23 -237 6 -16 9 -28 6 -28 -9 0 40 -98 75 -150
77 -114 219 -199 375 -225 122 -20 340 -6 490 31 33 8 69 16 80 18 11 3 67 20
125 40 58 20 112 38 122 40 9 3 30 12 47 20 16 9 37 16 46 16 8 0 15 4 15 10
0 5 3 9 8 8 4 0 16 2 27 7 34 13 350 168 355 175 3 3 16 11 30 17 14 7 48 26
75 43 28 17 59 35 70 40 20 10 50 28 69 43 6 4 70 46 141 94 72 47 146 98 165
113 20 16 41 25 50 21 9 -3 60 -38 115 -77 159 -112 414 -274 433 -274 5 0 12
-3 14 -7 4 -11 38 -29 214 -117 357 -178 647 -268 899 -282 33 -1 62 -3 65 -4
17 -6 127 5 195 20 28 6 62 14 78 17 15 3 27 9 27 14 0 5 8 9 18 9 37 0 160
97 218 171 10 13 68 128 70 139 0 3 3 12 7 20 35 91 41 363 12 490 -4 14 -9
39 -11 55 -5 28 -15 65 -47 180 -8 28 -29 91 -47 140 -17 50 -37 105 -43 123
-6 17 -14 32 -19 32 -4 0 -8 7 -8 15 0 39 -286 583 -312 593 -4 2 -8 8 -8 13
0 6 -41 72 -92 147 -116 174 -131 196 -142 203 -8 7 99 170 116 177 4 2 8 7 8
12 0 7 116 188 138 215 4 6 11 17 15 25 4 8 18 33 31 55 46 75 109 190 165
300 74 146 103 211 166 375 22 55 74 231 80 269 3 19 8 37 10 41 6 10 23 125
30 199 4 36 6 67 7 70 0 3 0 8 -1 11 -1 3 -4 39 -6 80 -5 86 -9 116 -19 147
-4 12 -9 30 -11 41 -10 55 -75 161 -132 219 -64 64 -195 138 -265 148 -18 3
-59 9 -91 13 -65 10 -218 8 -287 -3 -25 -3 -58 -9 -75 -11 -16 -3 -57 -11 -90
-20 -33 -8 -69 -16 -80 -18 -11 -3 -49 -14 -85 -26 -36 -12 -69 -23 -75 -24
-5 -2 -23 -9 -40 -15 -16 -7 -37 -14 -45 -16 -59 -15 -491 -219 -498 -237 -2
-4 -8 -8 -14 -8 -6 0 -55 -27 -110 -60 -54 -33 -103 -60 -108 -60 -4 0 -10 -3
-12 -7 -4 -11 -86 -63 -98 -63 -5 0 -10 -5 -10 -10 0 -6 -8 -14 -17 -18 -23
-9 -166 -104 -174 -115 -3 -5 -18 -14 -32 -22 -24 -12 -30 -10 -79 26 -29 21
-57 42 -63 47 -26 21 -226 152 -233 152 -5 0 -17 8 -28 18 -19 16 -42 31 -89
56 -11 6 -31 19 -45 28 -54 36 -289 157 -453 233 -100 45 -365 136 -441 151
-11 2 -43 8 -71 14 -82 16 -118 22 -155 24 -20 1 -41 5 -46 9 -6 3 -14 4 -16
1z"/>
<path d="M11470 11423 l0 -1423 54 1 c29 1 58 -1 64 -5 6 -3 13 -2 16 3 4 5
19 6 34 3 15 -4 41 -6 57 -5 56 6 124 5 135 -2 5 -3 10 -1 10 5 0 6 5 8 11 5
6 -4 34 -7 62 -6 29 1 62 1 75 1 18 0 23 5 22 23 -1 12 -2 80 -1 151 l1 130
23 -31 c35 -48 68 -80 127 -126 30 -23 57 -44 60 -47 20 -21 220 -106 220 -93
0 3 6 1 13 -5 21 -17 157 -35 257 -34 119 1 174 8 276 38 75 22 224 92 224
106 0 5 5 8 11 8 24 0 144 107 214 191 69 82 161 254 181 336 4 16 9 33 13 38
3 6 6 15 8 20 56 260 59 445 13 660 -30 137 -69 238 -127 333 -18 29 -33 56
-33 61 0 5 -4 11 -8 13 -4 2 -23 23 -42 47 -29 37 -77 86 -133 136 -78 70
-269 163 -373 181 -16 3 -38 8 -49 11 -45 14 -203 18 -290 8 -141 -16 -269
-63 -384 -139 -66 -44 -173 -147 -183 -176 -16 -47 -20 47 -20 499 0 516 0
524 -38 501 -8 -5 -18 -6 -24 -3 -9 6 -279 8 -301 3 -5 -1 -14 -1 -20 0 -5 1
-43 2 -82 3 l-73 2 0 -1422z m1230 253 c19 -4 39 -12 45 -17 5 -5 17 -9 27 -9
22 0 108 -51 163 -96 66 -54 153 -194 171 -275 2 -11 6 -29 9 -41 13 -57 15
-79 15 -163 0 -120 -11 -189 -42 -264 -6 -14 -12 -28 -13 -31 -19 -57 -86
-150 -145 -203 -55 -49 -176 -115 -226 -123 -16 -2 -42 -7 -59 -9 -200 -32
-406 58 -525 230 -40 57 -70 126 -90 203 -23 89 -24 264 -3 357 9 39 16 73 15
78 -1 4 2 7 8 7 6 0 10 8 10 18 0 10 17 46 38 80 84 138 208 229 352 258 13 3
26 7 28 8 5 6 186 -1 222 -8z"/>
<path d="M21670 12805 c-1 -22 -1 -248 -1 -503 l1 -462 -64 63 c-95 96 -182
151 -313 200 -79 29 -148 46 -218 51 -27 3 -50 5 -50 6 0 1 -21 2 -48 3 -26 1
-47 0 -47 -3 0 -3 -19 -4 -41 -4 -23 1 -60 -3 -83 -8 -22 -6 -48 -11 -56 -12
-43 -6 -217 -71 -230 -85 -3 -3 -21 -15 -40 -25 -59 -32 -137 -96 -197 -160
-83 -89 -184 -252 -192 -309 0 -4 -8 -21 -17 -38 -8 -17 -17 -40 -20 -50 -2
-10 -6 -27 -8 -36 -12 -50 -28 -120 -32 -138 -7 -32 -16 -175 -15 -245 0 -238
72 -485 196 -669 121 -181 305 -316 519 -382 39 -12 50 -14 156 -26 303 -36
589 74 762 291 l39 48 -2 -93 c0 -52 0 -121 0 -155 1 -67 -1 -66 86 -65 17 1
38 1 48 1 9 0 25 0 35 0 9 0 31 0 47 1 17 0 39 0 50 -1 11 -1 26 -1 33 -1 30
2 39 2 77 2 22 0 49 0 60 0 11 0 38 -1 59 -1 22 -1 42 3 45 8 5 8 7 2812 2
2832 0 3 -123 5 -271 5 l-270 0 0 -40z m-435 -1130 c17 -4 35 -8 40 -9 33 -6
136 -63 180 -99 96 -77 155 -174 194 -316 17 -60 20 -97 17 -200 -1 -69 -5
-135 -8 -146 -3 -11 -11 -39 -17 -62 -48 -178 -178 -315 -360 -378 -24 -8 -46
-13 -49 -10 -2 2 -12 0 -22 -5 -22 -12 -107 -14 -179 -5 -222 27 -423 225
-466 460 -58 311 43 579 268 711 86 50 173 72 282 69 50 -2 104 -6 120 -10z"/>
<path d="M8055 12680 l-50 -5 -1 -990 0 -990 -22 -55 c-47 -118 -128 -177
-255 -184 -43 -3 -87 1 -109 9 -21 7 -38 10 -38 6 0 -3 -4 -1 -8 4 -4 6 -20
17 -37 26 -75 42 -130 158 -139 294 -1 19 -9 20 -270 22 l-269 1 7 -94 c14
-204 93 -388 226 -525 99 -102 264 -180 451 -212 70 -12 268 -14 334 -3 128
20 294 84 366 138 105 81 195 199 243 322 61 154 59 107 62 1219 l3 1017 -22
1 c-12 0 -35 2 -50 3 -16 1 -31 -2 -33 -6 -3 -5 -10 -5 -16 -2 -11 7 -257 8
-265 1 -2 -3 -17 -2 -31 2 -15 3 -49 4 -77 1z"/>
<path d="M10009 12166 c-2 -2 -33 -7 -69 -10 -36 -4 -78 -9 -95 -12 -62 -11
-70 -13 -70 -14 0 -1 -8 -3 -17 -5 -32 -6 -123 -37 -165 -56 -24 -10 -45 -19
-47 -19 -9 0 -131 -74 -144 -87 -7 -7 -17 -13 -22 -13 -19 0 -188 -179 -233
-246 -26 -39 -47 -74 -47 -78 0 -4 -10 -22 -22 -39 -13 -18 -21 -32 -19 -32 2
0 -4 -17 -13 -38 -13 -33 -23 -62 -42 -132 -2 -5 -6 -23 -9 -40 -3 -16 -8 -36
-11 -44 -21 -60 -23 -375 -3 -456 4 -16 10 -43 13 -60 6 -41 34 -136 46 -157
6 -10 10 -25 10 -33 0 -8 5 -15 10 -15 6 0 10 -7 10 -15 0 -28 76 -156 130
-219 95 -113 190 -190 311 -254 74 -39 198 -86 256 -97 15 -2 39 -7 53 -10
103 -22 390 -22 452 0 7 2 27 7 43 10 37 7 59 13 63 15 1 2 5 3 10 4 127 28
319 137 435 246 161 151 291 402 312 600 2 14 6 45 10 70 7 50 7 228 -1 275
-2 17 -6 46 -8 65 -6 55 -15 89 -43 175 -73 224 -215 413 -404 537 -55 35
-199 107 -229 113 -8 2 -27 8 -43 14 -15 6 -38 13 -50 15 -12 3 -47 10 -77 16
-30 6 -84 14 -120 16 -36 3 -76 6 -90 7 -14 2 -35 -1 -48 -5 -15 -5 -21 -4
-17 2 6 10 2 14 -6 6z m166 -488 c221 -49 374 -226 414 -478 9 -57 7 -252 -4
-305 -21 -104 -75 -212 -147 -290 -45 -49 -150 -124 -181 -129 -7 -1 -17 -5
-23 -8 -27 -17 -133 -34 -204 -32 -185 3 -346 99 -433 256 -32 57 -45 94 -75
211 -11 40 -9 279 2 337 4 19 19 67 33 105 72 192 233 324 418 342 28 3 51 6
53 7 5 5 99 -5 147 -16z"/>
<path d="M14919 12166 c-2 -3 -36 -7 -74 -10 -138 -12 -325 -61 -392 -104 -13
-8 -23 -11 -23 -8 0 4 -6 2 -12 -4 -7 -5 -49 -33 -93 -61 -220 -140 -393 -401
-439 -664 -3 -16 -8 -41 -12 -55 -10 -42 -12 -305 -3 -362 5 -29 11 -66 14
-83 20 -123 90 -295 166 -406 86 -127 231 -254 369 -324 210 -106 496 -145
735 -101 17 3 44 8 60 11 31 6 88 22 115 32 8 4 17 7 20 7 28 7 130 53 130 58
0 5 9 8 20 8 11 0 20 3 20 8 0 4 20 18 45 31 25 13 45 28 45 32 0 5 6 9 13 9
20 0 170 149 222 220 73 101 146 260 171 371 25 113 33 199 29 324 -1 77 -5
151 -9 165 -3 14 -7 36 -10 50 -25 140 -111 344 -181 427 -82 98 -107 125
-153 163 -29 25 -59 51 -67 58 -7 6 -16 12 -19 12 -3 0 -22 12 -43 26 -30 20
-151 82 -173 89 -3 1 -32 10 -65 20 -33 10 -61 18 -62 17 -2 0 -17 4 -35 9
-18 5 -46 11 -63 13 -16 2 -55 7 -85 11 -79 11 -112 11 -138 3 -15 -5 -21 -4
-17 2 6 10 2 14 -6 6z m122 -480 c20 -3 47 -10 60 -15 13 -5 26 -8 29 -7 17 4
129 -64 176 -107 96 -88 152 -196 180 -347 10 -56 12 -206 3 -263 -5 -29 -10
-61 -12 -72 -1 -11 -5 -24 -8 -30 -4 -5 -9 -23 -13 -40 -21 -87 -128 -228
-216 -282 -100 -62 -176 -85 -300 -87 -251 -5 -460 173 -515 441 -20 100 -22
247 -5 344 26 142 100 279 189 352 57 47 153 95 205 103 21 3 47 9 57 12 20 8
117 7 170 -2z"/>
<path d="M18737 12163 c-1 -1 -36 -4 -77 -7 -73 -6 -97 -10 -150 -21 -14 -4
-35 -8 -48 -11 -39 -8 -114 -35 -180 -65 -188 -85 -359 -251 -453 -439 -31
-63 -75 -178 -83 -220 -3 -14 -12 -61 -21 -105 -17 -86 -23 -290 -11 -390 64
-520 409 -871 916 -931 293 -35 593 42 804 205 71 55 166 151 166 169 0 6 4
12 8 12 27 0 174 292 154 304 -4 2 -137 4 -294 4 l-287 -1 -11 -28 c-21 -51
-96 -129 -155 -164 -97 -57 -247 -77 -373 -50 -204 42 -359 218 -387 438 -5
36 -4 37 28 38 17 0 366 1 775 1 408 1 745 4 747 8 8 13 15 113 15 200 -2 144
-12 221 -45 336 -26 88 -76 205 -101 234 -7 8 -13 18 -13 22 -3 19 -72 107
-132 167 -60 61 -153 129 -235 174 -42 22 -184 77 -184 70 0 -3 -7 0 -15 7 -8
7 -15 10 -15 7 0 -3 -15 -1 -32 4 -45 13 -104 21 -160 23 -27 0 -48 3 -48 6 0
4 -99 8 -103 3z m203 -472 c36 -13 83 -33 105 -46 108 -63 190 -183 210 -305
4 -25 9 -52 10 -61 3 -13 -50 -15 -493 -14 -274 1 -502 3 -508 3 -17 3 20 130
56 198 36 65 98 134 157 174 34 24 92 46 183 73 8 3 60 4 115 2 72 -1 118 -8
165 -24z"/>
<path d="M17467 12154 c-1 -1 -23 -5 -50 -8 -26 -4 -58 -11 -72 -16 -14 -5
-25 -7 -25 -5 0 9 -151 -64 -197 -96 -60 -41 -151 -132 -188 -187 -15 -23 -28
-42 -29 -42 -1 0 -1 73 -1 163 l0 162 -267 2 -268 1 -1 -46 c0 -26 -1 -505 -2
-1064 l-2 -1018 46 2 c26 0 52 -3 58 -6 6 -4 11 -1 11 6 0 8 3 9 8 3 8 -11
122 -14 122 -3 0 4 13 3 29 -2 16 -4 32 -6 35 -2 8 8 102 5 116 -3 5 -3 10 -1
10 5 0 6 5 8 12 4 13 -8 79 -6 88 3 3 2 5 264 6 581 1 317 4 593 8 612 27 138
59 209 119 271 83 83 206 120 408 122 l117 1 0 266 c1 146 -1 272 -4 281 -3
12 -16 16 -45 16 -21 0 -40 -2 -42 -3z"/>
</g>
</svg>
